<svg width="199" height="118" viewBox="0 0 199 118" fill="none" xmlns="http://www.w3.org/2000/svg">
<g opacity="0.32">
<path d="M0 117.999H58.1621L0 71.8633V117.999Z" fill="#E3F3F1"/>
<path d="M197.35 64.824V64.2807H196.681V63.7592H196.013V63.2159H195.344V62.6726H194.676V62.151H193.98V61.6077H193.312V61.0644H192.643V60.5429H191.975V59.9996H191.306V59.4564H190.638V58.9348H189.969V58.3916H189.301V57.87H188.632V57.3267H187.964V56.7834H187.295V56.2619H186.626V55.7186H185.958V55.1753H185.289V54.6538H184.621V54.1105H183.952V53.5673H183.284V53.0457H182.615V52.5024H181.947V51.9591H181.278V51.4376H180.61V50.8943H179.941V50.351H179.273V49.8295H178.604V49.2862H177.936V48.7429H177.267V48.2214H176.599V47.6781H175.93V47.1565H175.261V46.6133H174.593V46.07H173.924V45.5485H173.256V45.0052H172.587V44.4619H171.919V43.9403H171.25V43.397H170.582V42.8538H169.913V42.3322H169.245V41.789H168.576V41.2457H167.908V40.7242H167.239V40.1809H166.571V39.6376H165.902V39.116H165.234V38.5727H164.565V38.0512H163.896V37.5079H163.228V36.9646H162.559V36.4431H161.891V35.8998H161.222V35.3566H160.554V34.835H159.885V34.2917H159.217V33.7484H158.548V33.2269H157.88V32.6836H157.211V32.1403H156.543V31.6188H155.874V31.0755H155.206V30.5323H154.537V30.0107H153.869V29.4674H153.2V28.9459H152.532V28.4026H151.863V27.8593H151.194V27.3378H150.526V26.7945H149.857V26.2512H149.189V25.7297H148.52V25.1864H147.852V24.6431H147.183V24.1216H146.515V23.5783H145.846V23.035H145.178V22.5135H144.509V21.9702H143.841V21.4269H143.172V20.9054H142.504V20.3621H141.835V19.8188H141.167V19.2972H140.498V18.754H139.829V18.2324H139.161V17.6892H138.492V17.1459H137.824V16.6244H137.155V16.0811H136.46V15.5378H135.792V15.0162H135.123V14.4729H134.455V13.9297H133.786V13.4081H133.117V12.8648H132.449V12.3216H131.78V11.8H131.112V11.2568H130.443V10.7135H129.775V10.1919H129.106V9.64862H128.438V9.12709H127.769V8.58382H127.101V8.04054H126.432V7.51901H125.764V6.97574H125.095V6.43246H124.427V5.91087H123.758V5.36759H123.09V4.82431H122.421V4.30278H121.752V3.75951H121.084V3.21623H120.415V2.6947H119.747V2.15143H119.078V1.60815H118.41V1.08656H117.741V0.543278H117.073V0H90.7327V51.9591H90.5455V51.4376H89.877V50.8943H89.2085V50.351H88.5399V49.8295H87.8714V49.2862H87.2029V48.7429H86.5344V48.2214H85.8658V47.6781H85.1973V47.1565H84.5288V46.6133H83.8603V46.07H83.1917V45.5485H82.5232V45.0052H81.8547V44.4619H81.1861V43.9403H80.5176V43.397H79.8491V42.8538H79.1805V42.3322H78.512V41.789H77.8435V41.2457H77.175V40.7242H76.5064V40.1809H75.8379V39.6376H75.1694V39.116H74.5008V38.5727H73.8323V38.0512H73.1638V37.5079H72.4953V36.9646H71.8267V36.4431H71.1582V35.8998H70.4897V35.3566H69.8211V34.835H69.1526V34.2917H68.4841V33.7484H67.8156V33.2269H67.147V32.6836H66.4785V32.1403H65.81V31.6188H65.1414V31.0755H64.4729V30.5323H63.8044V30.0107H63.1359V29.4674H62.4673V28.9459H61.7988V28.4026H61.1303V27.8593H60.4617V27.3378H59.7932V26.7945H59.1247V26.2512H58.4562V25.7297H57.7876V25.1864H57.1191V24.6431H56.4506V24.1216H55.782V23.5783H55.1135V23.035H54.445V22.5135H53.7765V21.9702H53.1079V21.4269H52.4394V20.9054H51.7709V20.3621H51.1023V19.8188H50.4338V19.2972H49.7653V18.754H49.0968V18.2324H48.4282V17.6892H47.7597V17.1459H47.0912V16.6244H46.4226V16.0811H45.7274V15.5378H45.0589V15.0162H44.3903V14.4729H43.7218V13.9297H43.0533V13.4081H42.3847V12.8648H41.7162V12.3216H41.0477V11.8H40.3792V11.2568H39.7106V10.7135H39.0421V10.1919H38.3736V9.64862H37.705V9.12709H37.0365V8.58382H36.368V8.04054H35.6995V7.51901H35.0309V6.97574H34.3624V6.43246H33.6939V5.91087H33.0253V5.36759H32.3568V4.82431H31.6883V4.30278H31.0198V3.75951H30.3512V3.21623H29.6827V2.6947H29.0142V2.15143H28.3456V1.60815H27.6771V1.08656H27.0086V0.543278H26.34V0H0V53.1978H0.668529V53.7193H1.33706V54.2626H2.03235V54.8059H2.70088V55.3275H3.36941V55.8707H4.03794V56.414H4.7332V56.9356H5.40172V57.4788H6.07025V58.0004H6.73878V58.5436H7.43408V59.0869H8.10261V59.6085H8.77114V60.1518H9.43966V60.6951H10.1349V61.2166H10.8034V61.7599H11.472V62.3031H12.1405V62.8247H12.8358V63.3679H13.5043V63.9112H14.1728V64.4328H14.8413V64.9761H15.5366V65.5194H16.2052V66.0409H16.8737V66.5842H17.5422V67.1057H18.2375V67.649H18.906V68.1923H19.5745V68.7138H20.2431V69.2571H20.9383V69.8004H21.6069V70.3219H22.2754V70.8652H22.9439V71.4085H23.6392V71.93H24.3077V72.4733H24.9763V73.0166H25.6448V73.5382H26.34V74.0814H27.0086V74.6247H27.6771V75.1462H28.3456V75.6895H29.0409V76.2328H29.7094V76.7543H30.378V77.2976H31.0465V77.8191H31.7418V78.3624H32.4103V78.9057H33.0788V79.4273H33.7474V79.9705H34.4426V80.5138H35.1111V81.0353H35.7797V81.5786H36.4482V82.1219H37.1435V82.6434H37.812V83.1867H38.4805V83.73H39.149V84.2516H39.8443V84.7949H40.5129V85.3381H41.1814V85.8597H41.8499V86.4029H42.5185V86.9245H43.2137V87.4677H43.8822V88.011H44.5508V88.5326H45.2193V89.0759H45.9146V89.6192H46.5831V90.1407H47.2517V90.684H47.9202V91.2272H48.6154V91.7488H49.284V92.2921H49.9525V92.8353H50.621V93.3569H51.3163V93.9002H51.9848V94.4435H52.6533V94.965H53.3219V95.5083H54.0172V96.0298H54.6857V96.5731H55.3542V97.1164H56.0227V97.638H56.718V98.1812H57.3865V98.7245H58.0551V99.246H58.7236V99.7893H59.4189V100.333H60.0874V100.854H60.7559V101.397H61.4245V101.941H62.1197V102.462H62.7882V103.006H63.4567V103.549H64.1253V104.07H64.8206V104.614H65.4891V105.157H66.1576V105.678H66.8261V106.222H67.5214V106.743H68.19V107.287H68.8585V107.83H69.527V108.351H70.2223V108.895H70.8908V109.438H71.5593V109.959H72.2278V110.503H72.9231V111.046H73.5917V111.568H74.2602V112.111H74.9287V112.654H75.624V113.176H76.2925V113.719H76.9611V114.262H77.6296V114.784H78.3248V115.327H78.9933V115.87H79.6619V116.392H80.3304V116.935H81.0257V117.457H81.6942V118H107.286V66.0409H107.606V66.5842H108.275V67.1057H108.97V67.649H109.639V68.1923H110.307V68.7138H110.976V69.2571H111.671V69.8004H112.34V70.3219H113.008V70.8652H113.677V71.4085H114.372V71.93H115.04V72.4733H115.709V73.0166H116.378V73.5382H117.073V74.0814H117.741V74.6247H118.41V75.1462H119.078V75.6895H119.774V76.2328H120.442V76.7543H121.111V77.2976H121.779V77.8191H122.474V78.3624H123.143V78.9057H123.812V79.4273H124.48V79.9705H125.175V80.5138H125.844V81.0353H126.512V81.5786H127.181V82.1219H127.876V82.6434H128.545V83.1867H129.213V83.73H129.882V84.2516H130.55V84.7949H131.246V85.3381H131.914V85.8597H132.583V86.4029H133.251V86.9245H133.946V87.4677H134.615V88.011H135.284V88.5326H135.952V89.0759H136.647V89.6192H137.316V90.1407H137.984V90.684H138.653V91.2272H139.348V91.7488H140.017V92.2921H140.685V92.8353H141.354V93.3569H142.049V93.9002H142.718V94.4435H143.386V94.965H144.055V95.5083H144.75V96.0298H145.418V96.5731H146.087V97.1164H146.755V97.638H147.451V98.1812H148.119V98.7245H148.788V99.246H149.456V99.7893H150.152V100.333H150.82V100.854H151.489V101.397H152.157V101.941H152.852V102.462H153.521V103.006H154.19V103.549H154.858V104.07H155.553V104.614H156.222V105.157H156.89V105.678H157.559V106.222H158.254V106.743H158.923V107.287H159.591V107.83H160.26V108.351H160.955V108.895H161.624V109.438H162.292V109.959H162.961V110.503H163.656V111.046H164.324V111.568H164.993V112.111H165.661V112.654H166.357V113.176H167.025V113.719H167.694V114.262H168.362V114.784H169.058V115.327H169.726V115.87H170.395V116.392H171.063V116.935H171.758V117.457H172.427V118H198.018V64.824H197.35Z" fill="#E3F3F1"/>
</g>
</svg>
