<svg width="810" height="670" viewBox="0 0 810 670" fill="none" xmlns="http://www.w3.org/2000/svg">
<g clip-path="url(#clip0_241_102)">
<rect width="810" height="670" fill="#1B6673"/>
<rect x="-906" width="1716" height="670" fill="url(#paint0_linear_241_102)"/>
<g opacity="0.05">
<path d="M-0.000488281 669.981H305.47L-0.000488281 408.031V669.981Z" fill="#F7F5F3"/>
<path d="M1084.33 368.068V364.983H1080.65V362.022H1076.98V358.938H1073.31V355.853H1069.63V352.891H1065.81V349.807H1062.14V346.722H1058.47V343.761H1054.79V340.676H1051.12V337.591H1047.45V334.63H1043.77V331.545H1040.1V328.584H1036.43V325.499H1032.76V322.414H1029.08V319.453H1025.41V316.368H1021.74V313.284H1018.06V310.322H1014.39V307.238H1010.72V304.153H1007.04V301.191H1003.37V298.107H999.696V295.022H996.023V292.061H992.35V288.976H988.677V285.891H985.003V282.93H981.33V279.845H977.657V276.761H973.984V273.799H970.311V270.714H966.637V267.753H962.964V264.669H959.291V261.584H955.618V258.623H951.945V255.538H948.272V252.453H944.598V249.492H940.925V246.407H937.252V243.322H933.579V240.361H929.906V237.276H926.232V234.192H922.559V231.23H918.886V228.146H915.213V225.061H911.54V222.099H907.866V219.015H904.193V216.053H900.52V212.969H896.847V209.884H893.174V206.923H889.5V203.838H885.827V200.753H882.154V197.792H878.481V194.707H874.808V191.622H871.134V188.661H867.461V185.576H863.788V182.492H860.115V179.531H856.442V176.446H852.768V173.361H849.095V170.4H845.422V167.315H841.749V164.354H838.076V161.269H834.403V158.184H830.729V155.223H827.056V152.138H823.383V149.054H819.71V146.092H816.037V143.008H812.363V139.923H808.69V136.961H805.017V133.877H801.344V130.792H797.671V127.831H793.997V124.746H790.324V121.661H786.651V118.7H782.978V115.615H779.305V112.531H775.631V109.569H771.958V106.484H768.285V103.523H764.612V100.438H760.939V97.3537H757.265V94.3925H753.592V91.3078H749.772V88.2231H746.099V85.2615H742.426V82.1768H738.753V79.0921H735.08V76.1309H731.406V73.0462H727.733V69.9615H724.06V67.0003H720.387V63.9155H716.714V60.8308H713.041V57.8692H709.367V54.7845H705.694V51.8233H702.021V48.7386H698.348V45.6539H694.675V42.6927H691.001V39.608H687.328V36.5233H683.655V33.5617H679.982V30.477H676.309V27.3923H672.635V24.4311H668.962V21.3464H665.289V18.2616H661.616V15.3004H657.943V12.2157H654.269V9.13101H650.596V6.16943H646.923V3.08471H643.25V0H498.526V295.022H497.497V292.061H493.824V288.976H490.151V285.891H486.478V282.93H482.805V279.845H479.131V276.761H475.458V273.799H471.785V270.714H468.112V267.753H464.439V264.669H460.765V261.584H457.092V258.623H453.419V255.538H449.746V252.453H446.073V249.492H442.399V246.407H438.726V243.322H435.053V240.361H431.38V237.276H427.707V234.192H424.033V231.23H420.36V228.146H416.687V225.061H413.014V222.099H409.341V219.015H405.667V216.053H401.994V212.969H398.321V209.884H394.648V206.923H390.975V203.838H387.302V200.753H383.628V197.792H379.955V194.707H376.282V191.622H372.609V188.661H368.936V185.576H365.262V182.492H361.589V179.531H357.916V176.446H354.243V173.361H350.57V170.4H346.896V167.315H343.223V164.354H339.55V161.269H335.877V158.184H332.204V155.223H328.53V152.138H324.857V149.054H321.184V146.092H317.511V143.008H313.838V139.923H310.164V136.961H306.491V133.877H302.818V130.792H299.145V127.831H295.472V124.746H291.798V121.661H288.125V118.7H284.452V115.615H280.779V112.531H277.106V109.569H273.433V106.484H269.759V103.523H266.086V100.438H262.413V97.3537H258.74V94.3925H255.067V91.3078H251.247V88.2231H247.573V85.2615H243.9V82.1768H240.227V79.0921H236.554V76.1309H232.881V73.0462H229.207V69.9615H225.534V67.0003H221.861V63.9155H218.188V60.8308H214.515V57.8692H210.841V54.7845H207.168V51.8233H203.495V48.7386H199.822V45.6539H196.149V42.6927H192.475V39.608H188.802V36.5233H185.129V33.5617H181.456V30.477H177.783V27.3923H174.109V24.4311H170.436V21.3464H166.763V18.2616H163.09V15.3004H159.417V12.2157H155.743V9.13101H152.07V6.16943H148.397V3.08471H144.724V0H0V302.055H3.67319V305.016H7.34639V308.101H11.1667V311.186H14.8398V314.147H18.513V317.232H22.1862V320.317H26.0063V323.278H29.6795V326.363H33.3527V329.324H37.0259V332.409H40.8461V335.493H44.5193V338.455H48.1925V341.54H51.8657V344.624H55.6857V347.586H59.3589V350.67H63.0321V353.755H66.7053V356.716H70.5254V359.801H74.1986V362.886H77.8717V365.847H81.5449V368.932H85.3652V372.017H89.0384V374.978H92.7116V378.063H96.3848V381.024H100.205V384.109H103.878V387.193H107.551V390.155H111.224V393.24H115.044V396.324H118.718V399.285H122.391V402.37H126.064V405.455H129.884V408.416H133.557V411.501H137.231V414.586H140.904V417.547H144.724V420.632H148.397V423.717H152.07V426.678H155.743V429.762H159.564V432.847H163.237V435.808H166.91V438.893H170.583V441.854H174.403V444.939H178.077V448.024H181.75V450.985H185.423V454.07H189.243V457.155H192.916V460.116H196.589V463.201H200.263V466.285H204.083V469.247H207.756V472.331H211.429V475.416H215.102V478.378H218.922V481.462H222.596V484.547H226.269V487.508H229.942V490.593H233.615V493.554H237.435V496.639H241.108V499.724H244.782V502.685H248.455V505.77H252.275V508.855H255.948V511.816H259.622V514.901H263.295V517.985H267.115V520.946H270.788V524.031H274.461V527.116H278.134V530.077H281.954V533.162H285.628V536.247H289.301V539.208H292.974V542.293H296.794V545.254H300.467V548.339H304.141V551.423H307.814V554.385H311.634V557.47H315.307V560.554H318.98V563.516H322.653V566.6H326.474V569.685H330.147V572.646H333.82V575.731H337.493V578.816H341.313V581.777H344.986V584.862H348.659V587.947H352.333V590.908H356.153V593.993H359.826V597.077H363.499V600.039H367.172V603.123H370.993V606.085H374.666V609.17H378.339V612.254H382.012V615.215H385.832V618.3H389.505V621.385H393.179V624.346H396.852V627.431H400.672V630.515H404.345V633.477H408.018V636.562H411.692V639.646H415.512V642.608H419.185V645.692H422.858V648.777H426.531V651.738H430.351V654.823H434.024V657.908H437.698V660.869H441.371V663.954H445.191V666.915H448.864V670H589.474V374.978H591.237V378.063H594.91V381.024H598.731V384.109H602.404V387.193H606.077V390.155H609.75V393.24H613.57V396.324H617.243V399.285H620.917V402.37H624.59V405.455H628.41V408.416H632.083V411.501H635.756V414.586H639.43V417.547H643.25V420.632H646.923V423.717H650.596V426.678H654.269V429.762H658.089V432.847H661.762V435.808H665.436V438.893H669.109V441.854H672.929V444.939H676.602V448.024H680.275V450.985H683.949V454.07H687.769V457.155H691.442V460.116H695.115V463.201H698.788V466.285H702.608V469.247H706.282V472.331H709.955V475.416H713.628V478.378H717.301V481.462H721.121V484.547H724.795V487.508H728.468V490.593H732.141V493.554H735.961V496.639H739.634V499.724H743.308V502.685H746.981V505.77H750.801V508.855H754.474V511.816H758.147V514.901H761.821V517.985H765.64V520.946H769.314V524.031H772.987V527.116H776.66V530.077H780.48V533.162H784.153V536.247H787.827V539.208H791.5V542.293H795.32V545.254H798.993V548.339H802.666V551.423H806.34V554.385H810.16V557.47H813.833V560.554H817.506V563.516H821.179V566.6H824.999V569.685H828.673V572.646H832.346V575.731H836.019V578.816H839.839V581.777H843.512V584.862H847.186V587.947H850.859V590.908H854.679V593.993H858.352V597.077H862.025V600.039H865.698V603.123H869.518V606.085H873.192V609.17H876.865V612.254H880.538V615.215H884.358V618.3H888.032V621.385H891.705V624.346H895.378V627.431H899.198V630.515H902.871V633.477H906.544V636.562H910.217V639.646H914.038V642.608H917.711V645.692H921.384V648.777H925.057V651.738H928.877V654.823H932.551V657.908H936.224V660.869H939.897V663.954H943.717V666.915H947.39V670H1088V368.068H1084.33Z" fill="#F7F5F3"/>
</g>
</g>
<defs>
<linearGradient id="paint0_linear_241_102" x1="932.742" y1="385.835" x2="-937.579" y2="385.834" gradientUnits="userSpaceOnUse">
<stop stop-color="#067480"/>
<stop offset="0.63182" stop-color="#034750"/>
<stop offset="1" stop-color="#00232A"/>
</linearGradient>
<clipPath id="clip0_241_102">
<rect width="810" height="670" fill="white"/>
</clipPath>
</defs>
</svg>
