<svg width="249" height="38" viewBox="0 0 249 38" fill="none" xmlns="http://www.w3.org/2000/svg">
<path d="M0 36.3363H14.5247L0 22.1289V36.3363Z" fill="#1B6673"/>
<path d="M49.2836 19.9627V19.7953H49.1167V19.6347H48.9497V19.4674H48.7828V19.3001H48.6158V19.1395H48.4422V18.9722H48.2752V18.8049H48.1083V18.6443H47.9413V18.477H47.7744V18.3097H47.6074V18.1491H47.4405V17.9818H47.2735V17.8212H47.1066V17.6539H46.9396V17.4866H46.7727V17.326H46.6057V17.1586H46.4388V16.9913H46.2718V16.8307H46.1049V16.6634H45.9379V16.4961H45.771V16.3355H45.604V16.1682H45.4371V16.0009H45.2701V15.8403H45.1032V15.673H44.9362V15.5057H44.7693V15.3451H44.6023V15.1778H44.4354V15.0105H44.2684V14.8499H44.1015V14.6826H43.9345V14.5219H43.7676V14.3546H43.6006V14.1873H43.4337V14.0267H43.2667V13.8594H43.0998V13.6921H42.9328V13.5315H42.7659V13.3642H42.5989V13.1969H42.432V13.0363H42.265V12.869H42.0981V12.7017H41.9311V12.5411H41.7642V12.3738H41.5972V12.2065H41.4303V12.0459H41.2633V11.8785H41.0964V11.7179H40.9294V11.5506H40.7625V11.3833H40.5955V11.2227H40.4286V11.0554H40.2616V10.8881H40.0947V10.7275H39.9277V10.5602H39.7608V10.3929H39.5938V10.2323H39.4269V10.065H39.2599V9.89769H39.093V9.73708H38.926V9.56978H38.7591V9.40247H38.5921V9.24185H38.4252V9.07455H38.2582V8.91394H38.0913V8.74664H37.9243V8.57934H37.7574V8.41873H37.5904V8.25143H37.4235V8.08412H37.2565V7.92352H37.0896V7.75622H36.9226V7.58891H36.7557V7.42829H36.5887V7.26099H36.4218V7.09368H36.2548V6.93308H36.0879V6.76577H35.9209V6.59847H35.754V6.43787H35.587V6.27056H35.4201V6.10326H35.2531V5.94264H35.0862V5.77533H34.9192V5.61473H34.7523V5.44742H34.5853V5.28012H34.4184V5.11952H34.2514V4.95221H34.0778V4.78491H33.9109V4.62429H33.7439V4.45698H33.577V4.28968H33.41V4.12907H33.2431V3.96177H33.0761V3.79447H32.9092V3.63386H32.7422V3.46656H32.5753V3.29926H32.4083V3.13863H32.2414V2.97133H32.0744V2.81072H31.9075V2.64342H31.7405V2.47612H31.5736V2.31551H31.4066V2.14821H31.2397V1.98091H31.0727V1.82028H30.9058V1.65298H30.7388V1.48568H30.5719V1.32507H30.4049V1.15777H30.238V0.990465H30.071V0.829861H29.9041V0.662557H29.7371V0.495254H29.5702V0.334629H29.4032V0.167326H29.2363V2.28882e-05H22.6585V16.0009H22.6117V15.8403H22.4447V15.673H22.2778V15.5057H22.1109V15.3451H21.9439V15.1778H21.777V15.0105H21.61V14.8499H21.4431V14.6826H21.2761V14.5219H21.1092V14.3546H20.9422V14.1873H20.7753V14.0267H20.6083V13.8594H20.4414V13.6921H20.2744V13.5315H20.1075V13.3642H19.9405V13.1969H19.7736V13.0363H19.6066V12.869H19.4397V12.7017H19.2727V12.5411H19.1058V12.3738H18.9388V12.2065H18.7719V12.0459H18.6049V11.8785H18.438V11.7179H18.271V11.5506H18.1041V11.3833H17.9371V11.2227H17.7702V11.0554H17.6032V10.8881H17.4363V10.7275H17.2693V10.5602H17.1024V10.3929H16.9354V10.2323H16.7685V10.065H16.6015V9.89769H16.4346V9.73708H16.2676V9.56978H16.1007V9.40247H15.9337V9.24185H15.7668V9.07455H15.5998V8.91394H15.4329V8.74664H15.2659V8.57934H15.099V8.41873H14.932V8.25143H14.7651V8.08412H14.5981V7.92352H14.4312V7.75622H14.2642V7.58891H14.0973V7.42829H13.9303V7.26099H13.7634V7.09368H13.5964V6.93308H13.4295V6.76577H13.2625V6.59847H13.0956V6.43787H12.9286V6.27056H12.7617V6.10326H12.5947V5.94264H12.4278V5.77533H12.2608V5.61473H12.0939V5.44742H11.9269V5.28012H11.76V5.11952H11.593V4.95221H11.4194V4.78491H11.2524V4.62429H11.0855V4.45698H10.9185V4.28968H10.7516V4.12907H10.5846V3.96177H10.4177V3.79447H10.2507V3.63386H10.0838V3.46656H9.91683V3.29926H9.74988V3.13863H9.58293V2.97133H9.41598V2.81072H9.24903V2.64342H9.08208V2.47612H8.91513V2.31551H8.74818V2.14821H8.58123V1.98091H8.41428V1.82028H8.24733V1.65298H8.08038V1.48568H7.91343V1.32507H7.74648V1.15777H7.57953V0.990465H7.41258V0.829861H7.24563V0.662557H7.07868V0.495254H6.91173V0.334629H6.74478V0.167326H6.57783V2.28882e-05H0V16.3824H0.16695V16.543H0.3339V16.7103H0.507534V16.8776H0.674484V17.0382H0.841434V17.2055H1.00838V17.3728H1.18201V17.5334H1.34896V17.7007H1.51591V17.8613H1.68286V18.0286H1.85649V18.1959H2.02344V18.3565H2.19039V18.5238H2.35734V18.6912H2.53097V18.8518H2.69792V19.0191H2.86487V19.1864H3.03182V19.347H3.20544V19.5143H3.37239V19.6816H3.53934V19.8422H3.70629V20.0095H3.87993V20.1768H4.04688V20.3374H4.21383V20.5047H4.38077V20.6653H4.5544V20.8326H4.72135V20.9999H4.8883V21.1605H5.05525V21.3279H5.22887V21.4952H5.39582V21.6558H5.56277V21.8231H5.72972V21.9904H5.90336V22.151H6.07031V22.3183H6.23726V22.4856H6.40421V22.6462H6.57783V22.8135H6.74478V22.9808H6.91173V23.1414H7.07868V23.3087H7.25231V23.476H7.41926V23.6366H7.58621V23.8039H7.75316V23.9645H7.92679V24.1318H8.09374V24.2991H8.26069V24.4598H8.42764V24.6271H8.60126V24.7944H8.76821V24.955H8.93516V25.1223H9.10211V25.2896H9.27574V25.4502H9.44269V25.6175H9.60964V25.7848H9.77659V25.9454H9.95022V26.1127H10.1172V26.28H10.2841V26.4406H10.4511V26.6079H10.618V26.7685H10.7916V26.9358H10.9586V27.1031H11.1255V27.2638H11.2925V27.4311H11.4661V27.5984H11.6331V27.759H11.8V27.9263H11.967V28.0936H12.1406V28.2542H12.3076V28.4215H12.4745V28.5888H12.6415V28.7494H12.8151V28.9167H12.982V29.084H13.149V29.2446H13.3159V29.4119H13.4896V29.5725H13.6565V29.7398H13.8235V29.9071H13.9904V30.0678H14.164V30.2351H14.331V30.4024H14.4979V30.563H14.6649V30.7303H14.8385V30.8976H15.0055V31.0582H15.1724V31.2255H15.3394V31.3928H15.513V31.5534H15.6799V31.7207H15.8469V31.888H16.0138V32.0486H16.1875V32.2159H16.3544V32.3832H16.5214V32.5438H16.6883V32.7111H16.862V32.8718H17.0289V33.0391H17.1959V33.2064H17.3628V33.367H17.5364V33.5343H17.7034V33.7016H17.8703V33.8622H18.0373V34.0295H18.2109V34.1968H18.3779V34.3574H18.5448V34.5247H18.7118V34.692H18.8854V34.8526H19.0523V35.0199H19.2193V35.1872H19.3862V35.3478H19.5599V35.5151H19.7268V35.6825H19.8938V35.8431H20.0607V36.0104H20.2343V36.171H20.4013V36.3383H26.7921V20.3374H26.8723V20.5047H27.0392V20.6653H27.2129V20.8326H27.3798V20.9999H27.5468V21.1605H27.7137V21.3279H27.8873V21.4952H28.0543V21.6558H28.2212V21.8231H28.3882V21.9904H28.5618V22.151H28.7287V22.3183H28.8957V22.4856H29.0626V22.6462H29.2363V22.8135H29.4032V22.9808H29.5702V23.1414H29.7371V23.3087H29.9107V23.476H30.0777V23.6366H30.2446V23.8039H30.4116V23.9645H30.5852V24.1318H30.7522V24.2991H30.9191V24.4598H31.0861V24.6271H31.2597V24.7944H31.4267V24.955H31.5936V25.1223H31.7606V25.2896H31.9342V25.4502H32.1011V25.6175H32.2681V25.7848H32.435V25.9454H32.602V26.1127H32.7756V26.28H32.9426V26.4406H33.1095V26.6079H33.2765V26.7685H33.4501V26.9358H33.617V27.1031H33.784V27.2638H33.9509V27.4311H34.1246V27.5984H34.2915V27.759H34.4585V27.9263H34.6254V28.0936H34.799V28.2542H34.966V28.4215H35.1329V28.5888H35.2999V28.7494H35.4735V28.9167H35.6405V29.084H35.8074V29.2446H35.9744V29.4119H36.148V29.5725H36.315V29.7398H36.4819V29.9071H36.6489V30.0678H36.8225V30.2351H36.9894V30.4024H37.1564V30.563H37.3233V30.7303H37.497V30.8976H37.6639V31.0582H37.8309V31.2255H37.9978V31.3928H38.1714V31.5534H38.3384V31.7207H38.5053V31.888H38.6723V32.0486H38.8459V32.2159H39.0129V32.3832H39.1798V32.5438H39.3468V32.7111H39.5204V32.8718H39.6873V33.0391H39.8543V33.2064H40.0212V33.367H40.1949V33.5343H40.3618V33.7016H40.5288V33.8622H40.6957V34.0295H40.8693V34.1968H41.0363V34.3574H41.2032V34.5247H41.3702V34.692H41.5438V34.8526H41.7108V35.0199H41.8777V35.1872H42.0447V35.3478H42.2183V35.5151H42.3853V35.6825H42.5522V35.8431H42.7192V36.0104H42.8928V36.171H43.0597V36.3383H49.4506V19.9627H49.2836Z" fill="#1B6673"/>
<path d="M62.7313 0.235194H68.2674C68.4744 0.235194 68.6614 0.362352 68.7348 0.556423L76.114 19.8231C77.5631 23.7513 79.7402 31.1194 79.7402 31.1194H79.8337C79.8337 31.1194 82.0574 23.7982 83.5132 19.8231L90.7455 0.556423C90.819 0.362352 91.006 0.228516 91.2197 0.228516H96.9494C97.2298 0.228516 97.4502 0.456048 97.4502 0.730425V35.7972C97.4502 36.0782 97.2232 36.2991 96.9494 36.2991H93.2097C92.9292 36.2991 92.7088 36.0715 92.7088 35.7972V14.4827C92.7088 11.2839 92.996 5.22084 92.996 5.22084H92.9025C92.9025 5.22084 91.4534 10.6482 90.3849 13.4655L81.7502 35.9845C81.6768 36.1786 81.4898 36.3058 81.2828 36.3058H78.1041C77.897 36.3058 77.7101 36.1786 77.6366 35.9845L69.0019 13.4655C67.9869 10.6548 66.4843 5.22084 66.4843 5.22084H66.3908C66.3908 5.22084 66.678 11.2839 66.678 14.4827V35.7972C66.678 36.0782 66.451 36.2991 66.1772 36.2991H62.7313C62.4508 36.2991 62.2305 36.0715 62.2305 35.7972V0.730425C62.2305 0.449356 62.4575 0.228516 62.7313 0.228516" fill="#1B6673"/>
<path d="M120.677 26.7095V23.2898C120.677 22.9217 120.296 22.6741 119.962 22.8347C118.633 23.4705 116.743 23.9657 114.967 24.2869C110.706 25.0164 107.902 25.7927 107.902 29.3796C107.902 32.7257 110.466 33.5488 113.077 33.5488C118.252 33.5488 120.677 29.7209 120.677 26.7095ZM103.16 29.4265C103.16 23.3634 107.614 22.0584 114.339 21.2353C118.159 20.8003 120.63 20.1713 120.63 17.5011C120.63 14.6904 118.646 12.9438 115.067 12.9438C111.16 12.9438 109.177 14.6971 108.863 17.5279C108.836 17.7822 108.629 17.9829 108.369 17.9829H105.01C104.716 17.9829 104.476 17.7353 104.509 17.4409C104.943 13.2516 108.289 9.64453 115.02 9.64453C117.491 9.64453 119.668 10.0795 121.311 11.0499C123.488 12.3615 124.797 14.6369 124.797 18.1302V30.3031C124.797 32.3911 125.278 33.502 127.555 33.0202H127.749V35.7907C127.749 36.0182 127.602 36.219 127.381 36.2792C126.834 36.4331 126.193 36.5603 125.331 36.5603C122.573 36.5603 121.217 35.2486 120.737 32.4848H120.69C119.047 34.7668 116.383 36.848 111.982 36.848C107.047 36.848 103.174 34.4255 103.174 29.4265" fill="#1B6673"/>
<path d="M135.867 14.9786H136.014C137.61 11.9739 140.274 9.93945 143.707 9.93945C144.254 9.93945 144.642 9.99299 145.002 10.1068C145.209 10.1737 145.356 10.3678 145.356 10.5886V14.4968H145.209C144.581 14.3027 144.147 14.2559 143.373 14.2559C139.359 14.2559 135.92 17.2606 135.92 22.1593V35.8112C135.92 36.0923 135.693 36.3131 135.419 36.3131H131.927C131.646 36.3131 131.426 36.0856 131.426 35.8112V10.7827C131.426 10.5016 131.653 10.2808 131.927 10.2808H135.372C135.653 10.2808 135.873 10.5083 135.873 10.7827V14.9786H135.867Z" fill="#1B6673"/>
<path d="M152.661 21.1349H166.585C166.879 21.1349 167.112 20.8873 167.086 20.5929C166.692 15.9218 164.154 13.1311 159.813 13.1311C155.473 13.1311 152.875 16.2363 152.16 20.5393C152.107 20.8472 152.341 21.1349 152.655 21.1349M147.386 23.3166C147.386 15.7545 152.367 9.64453 159.82 9.64453C163.693 9.64453 166.692 11.1503 168.722 13.6665C170.765 16.1359 171.827 19.6827 171.907 23.872C171.907 24.1531 171.68 24.3873 171.4 24.3873H152.521C152.227 24.3873 151.987 24.6416 152.02 24.936C152.514 29.7544 155.252 33.3614 160.101 33.3614C163.526 33.3614 165.937 31.8022 166.859 29.2458C166.932 29.045 167.119 28.8978 167.333 28.8978H170.712C171.052 28.8978 171.293 29.2324 171.193 29.5603C169.824 34.044 165.77 37.0421 160.054 37.0421C152.067 37.0421 147.379 30.9322 147.379 23.3166" fill="#1B6673"/>
<path d="M177.36 0.236328H180.853C181.133 0.236328 181.354 0.46386 181.354 0.738238V35.805C181.354 36.0861 181.127 36.3069 180.853 36.3069H177.36C177.08 36.3069 176.859 36.0794 176.859 35.805V0.738238C176.859 0.457168 177.086 0.236328 177.36 0.236328Z" fill="#1B6673"/>
<path d="M188.199 10.2745H191.691C191.972 10.2745 192.192 10.5021 192.192 10.7764V35.805C192.192 36.0861 191.965 36.3069 191.691 36.3069H188.199C187.918 36.3069 187.698 36.0794 187.698 35.805V10.7764C187.698 10.4954 187.925 10.2745 188.199 10.2745ZM188.099 0.236328H191.785C192.065 0.236328 192.286 0.46386 192.286 0.738238V4.96767C192.286 5.24874 192.059 5.46958 191.785 5.46958H188.099C187.818 5.46958 187.598 5.24204 187.598 4.96767V0.738238C187.598 0.457168 187.825 0.236328 188.099 0.236328Z" fill="#1B6673"/>
<path d="M217.743 23.3166C217.743 17.6952 214.985 13.2315 209.663 13.2315C204.341 13.2315 201.583 17.6952 201.583 23.3166C201.583 28.938 204.341 33.3548 209.663 33.3548C214.985 33.3548 217.743 28.9446 217.743 23.3166ZM196.988 23.3166C196.988 15.7545 201.877 9.64453 209.717 9.64453C217.557 9.64453 222.345 15.7545 222.345 23.3166C222.345 30.8787 217.557 37.0421 209.717 37.0421C201.877 37.0421 196.988 30.9322 196.988 23.3166Z" fill="#1B6673"/>
<path d="M231.585 13.9566H231.732C233.055 12.123 234.704 10.7444 236.874 10.0819C242.784 8.26832 248.714 12.9528 248.714 19.1497V35.8064C248.714 36.0875 248.487 36.3083 248.214 36.3083H244.768C244.487 36.3083 244.267 36.0808 244.267 35.8064V18.6612C244.267 15.3151 242.09 13.4213 238.557 13.4213C234.544 13.4213 231.639 16.2788 231.639 20.4547V35.8064C231.639 36.0875 231.412 36.3083 231.138 36.3083H227.645C227.365 36.3083 227.145 36.0808 227.145 35.8064V10.7779C227.145 10.4968 227.372 10.276 227.645 10.276H231.091C231.372 10.276 231.592 10.5035 231.592 10.7779V13.9566H231.585Z" fill="#1B6673"/>
</svg>
