<svg width="215" height="32" viewBox="0 0 215 32" fill="none" xmlns="http://www.w3.org/2000/svg">
<path d="M0 31.391H12.5479L0 19.1172V31.391Z" fill="#1B6673"/>
<path d="M42.5763 17.2458V17.1012H42.4321V16.9625H42.2878V16.818H42.1436V16.6734H41.9994V16.5347H41.8494V16.3901H41.7052V16.2456H41.5609V16.1069H41.4167V15.9623H41.2725V15.8178H41.1282V15.679H40.984V15.5345H40.8398V15.3957H40.6955V15.2512H40.5513V15.1067H40.4071V14.9679H40.2629V14.8234H40.1186V14.6789H39.9744V14.5401H39.8302V14.3956H39.6859V14.251H39.5417V14.1123H39.3975V13.9677H39.2533V13.8232H39.109V13.6845H38.9648V13.5399H38.8206V13.3954H38.6763V13.2567H38.5321V13.1121H38.3879V12.9676H38.2437V12.8288H38.0994V12.6843H37.9552V12.5455H37.811V12.401H37.6667V12.2565H37.5225V12.1177H37.3783V11.9732H37.2341V11.8287H37.0898V11.6899H36.9456V11.5454H36.8014V11.4008H36.6571V11.2621H36.5129V11.1175H36.3687V10.973H36.2245V10.8343H36.0802V10.6897H35.936V10.5452H35.7918V10.4064H35.6475V10.2619H35.5033V10.1232H35.3591V9.97862H35.2149V9.83409H35.0706V9.69534H34.9264V9.55081H34.7822V9.40627H34.6379V9.26751H34.4937V9.12297H34.3495V8.97844H34.2053V8.83969H34.061V8.69516H33.9168V8.55062H33.7726V8.41188H33.6283V8.26734H33.4841V8.12281H33.3399V7.98405H33.1957V7.83951H33.0514V7.70077H32.9072V7.55623H32.763V7.4117H32.6187V7.27295H32.4745V7.12842H32.3303V6.98388H32.1861V6.84514H32.0418V6.7006H31.8976V6.55607H31.7534V6.4173H31.6091V6.27277H31.4649V6.12824H31.3207V5.98949H31.1765V5.84496H31.0322V5.70042H30.888V5.56168H30.7438V5.41714H30.5995V5.27261H30.4553V5.13384H30.3111V4.98931H30.1669V4.85056H30.0226V4.70603H29.8784V4.5615H29.7342V4.42275H29.5899V4.27821H29.44V4.13368H29.2957V3.99492H29.1515V3.85038H29.0073V3.70585H28.863V3.5671H28.7188V3.42257H28.5746V3.27803H28.4304V3.13929H28.2861V2.99475H28.1419V2.85022H27.9977V2.71146H27.8534V2.56692H27.7092V2.42818H27.565V2.28364H27.4208V2.13911H27.2765V2.00036H27.1323V1.85583H26.9881V1.71129H26.8438V1.57253H26.6996V1.42799H26.5554V1.28346H26.4112V1.14471H26.2669V1.00018H26.1227V0.855647H25.9785V0.7169H25.8342V0.572366H25.69V0.427832H25.5458V0.289068H25.4016V0.144534H25.2573V0H19.5747V13.8232H19.5343V13.6845H19.3901V13.5399H19.2459V13.3954H19.1016V13.2567H18.9574V13.1121H18.8132V12.9676H18.669V12.8288H18.5247V12.6843H18.3805V12.5455H18.2363V12.401H18.092V12.2565H17.9478V12.1177H17.8036V11.9732H17.6594V11.8287H17.5151V11.6899H17.3709V11.5454H17.2267V11.4008H17.0824V11.2621H16.9382V11.1175H16.794V10.973H16.6498V10.8343H16.5055V10.6897H16.3613V10.5452H16.2171V10.4064H16.0728V10.2619H15.9286V10.1232H15.7844V9.97862H15.6402V9.83409H15.4959V9.69534H15.3517V9.55081H15.2075V9.40627H15.0632V9.26751H14.919V9.12297H14.7748V8.97844H14.6306V8.83969H14.4863V8.69516H14.3421V8.55062H14.1979V8.41188H14.0536V8.26734H13.9094V8.12281H13.7652V7.98405H13.621V7.83951H13.4767V7.70077H13.3325V7.55623H13.1883V7.4117H13.044V7.27295H12.8998V7.12842H12.7556V6.98388H12.6114V6.84514H12.4671V6.7006H12.3229V6.55607H12.1787V6.4173H12.0344V6.27277H11.8902V6.12824H11.746V5.98949H11.6018V5.84496H11.4575V5.70042H11.3133V5.56168H11.1691V5.41714H11.0248V5.27261H10.8806V5.13384H10.7364V4.98931H10.5922V4.85056H10.4479V4.70603H10.3037V4.5615H10.1595V4.42275H10.0152V4.27821H9.86524V4.13368H9.72101V3.99492H9.57679V3.85038H9.43256V3.70585H9.28833V3.5671H9.1441V3.42257H8.99987V3.27803H8.85564V3.13929H8.71141V2.99475H8.56718V2.85022H8.42296V2.71146H8.27873V2.56692H8.1345V2.42818H7.99027V2.28364H7.84604V2.13911H7.70181V2.00036H7.55758V1.85583H7.41336V1.71129H7.26913V1.57253H7.1249V1.42799H6.98067V1.28346H6.83644V1.14471H6.69221V1.00018H6.54798V0.855647H6.40376V0.7169H6.25953V0.572366H6.1153V0.427832H5.97107V0.289068H5.82684V0.144534H5.68261V0H0V14.1528H0.144229V14.2915H0.288457V14.436H0.438461V14.5806H0.582689V14.7193H0.726918V14.8639H0.871147V15.0084H1.02114V15.1472H1.16537V15.2917H1.3096V15.4304H1.45383V15.575H1.60383V15.7195H1.74806V15.8583H1.89229V16.0028H2.03652V16.1473H2.18651V16.2861H2.33074V16.4306H2.47497V16.5751H2.6192V16.7139H2.76919V16.8584H2.91342V17.003H3.05765V17.1417H3.20188V17.2863H3.35188V17.4308H3.49611V17.5695H3.64034V17.7141H3.78457V17.8528H3.93456V17.9974H4.07879V18.1419H4.22302V18.2807H4.36725V18.4252H4.51724V18.5697H4.66147V18.7085H4.8057V18.853H4.94993V18.9975H5.09993V19.1363H5.24416V19.2808H5.38839V19.4253H5.53262V19.5641H5.68261V19.7086H5.82684V19.8532H5.97107V19.9919H6.1153V20.1365H6.26529V20.281H6.40952V20.4197H6.55375V20.5643H6.69798V20.703H6.84798V20.8476H6.99221V20.9921H7.13644V21.1309H7.28067V21.2754H7.43066V21.4199H7.57489V21.5587H7.71912V21.7032H7.86335V21.8477H8.01334V21.9865H8.15757V22.131H8.3018V22.2756H8.44603V22.4143H8.59603V22.5588H8.74026V22.7034H8.88449V22.8421H9.02872V22.9867H9.17295V23.1254H9.32294V23.2699H9.46717V23.4145H9.6114V23.5532H9.75563V23.6978H9.90563V23.8423H10.0499V23.9811H10.1941V24.1256H10.3383V24.2701H10.4883V24.4089H10.6325V24.5534H10.7768V24.6979H10.921V24.8367H11.071V24.9812H11.2152V25.1258H11.3594V25.2645H11.5037V25.4091H11.6537V25.5478H11.7979V25.6923H11.9421V25.8369H12.0864V25.9756H12.2364V26.1202H12.3806V26.2647H12.5248V26.4034H12.669V26.548H12.8191V26.6925H12.9633V26.8313H13.1075V26.9758H13.2517V27.1203H13.4017V27.2591H13.546V27.4036H13.6902V27.5482H13.8344V27.6869H13.9844V27.8314H14.1286V27.976H14.2729V28.1147H14.4171V28.2593H14.5671V28.398H14.7113V28.5426H14.8556V28.6871H14.9998V28.8258H15.1498V28.9704H15.294V29.1149H15.4382V29.2536H15.5825V29.3982H15.7325V29.5427H15.8767V29.6815H16.0209V29.826H16.1651V29.9705H16.3152V30.1093H16.4594V30.2538H16.6036V30.3984H16.7478V30.5371H16.8978V30.6816H17.0421V30.8262H17.1863V30.9649H17.3305V31.1095H17.4805V31.2482H17.6247V31.3928H23.1458V17.5695H23.215V17.7141H23.3593V17.8528H23.5093V17.9974H23.6535V18.1419H23.7977V18.2807H23.942V18.4252H24.0919V18.5697H24.2362V18.7085H24.3804V18.853H24.5246V18.9975H24.6746V19.1363H24.8189V19.2808H24.9631V19.4253H25.1073V19.5641H25.2573V19.7086H25.4016V19.8532H25.5458V19.9919H25.69V20.1365H25.84V20.281H25.9842V20.4197H26.1285V20.5643H26.2727V20.703H26.4227V20.8476H26.5669V20.9921H26.7111V21.1309H26.8554V21.2754H27.0054V21.4199H27.1496V21.5587H27.2938V21.7032H27.4381V21.8477H27.588V21.9865H27.7323V22.131H27.8765V22.2756H28.0207V22.4143H28.165V22.5588H28.315V22.7034H28.4592V22.8421H28.6034V22.9867H28.7477V23.1254H28.8977V23.2699H29.0419V23.4145H29.1861V23.5532H29.3303V23.6978H29.4803V23.8423H29.6246V23.9811H29.7688V24.1256H29.913V24.2701H30.063V24.4089H30.2072V24.5534H30.3515V24.6979H30.4957V24.8367H30.6457V24.9812H30.7899V25.1258H30.9342V25.2645H31.0784V25.4091H31.2284V25.5478H31.3726V25.6923H31.5169V25.8369H31.6611V25.9756H31.8111V26.1202H31.9553V26.2647H32.0995V26.4034H32.2438V26.548H32.3938V26.6925H32.538V26.8313H32.6822V26.9758H32.8264V27.1203H32.9764V27.2591H33.1207V27.4036H33.2649V27.5482H33.4091V27.6869H33.5591V27.8314H33.7033V27.976H33.8476V28.1147H33.9918V28.2593H34.1418V28.398H34.286V28.5426H34.4303V28.6871H34.5745V28.8258H34.7245V28.9704H34.8687V29.1149H35.013V29.2536H35.1572V29.3982H35.3072V29.5427H35.4514V29.6815H35.5956V29.826H35.7399V29.9705H35.8899V30.1093H36.0341V30.2538H36.1783V30.3984H36.3225V30.5371H36.4725V30.6816H36.6168V30.8262H36.761V30.9649H36.9052V31.1095H37.0552V31.2482H37.1994V31.3928H42.7205V17.2458H42.5763Z" fill="#1B6673"/>
<path d="M54.1905 0.201082H58.9731C59.152 0.201082 59.3135 0.310934 59.377 0.478593L65.7519 17.1231C67.0038 20.5168 68.8845 26.882 68.8845 26.882H68.9653C68.9653 26.882 70.8864 20.5572 72.1441 17.1231L78.392 0.478593C78.4555 0.310934 78.6171 0.195312 78.8017 0.195312H83.7516C83.9939 0.195312 84.1843 0.391878 84.1843 0.628914V30.9232C84.1843 31.166 83.9881 31.3568 83.7516 31.3568H80.5209C80.2786 31.3568 80.0882 31.1602 80.0882 30.9232V12.5096C80.0882 9.7461 80.3363 4.5082 80.3363 4.5082H80.2555C80.2555 4.5082 79.0036 9.19688 78.0805 11.6308L70.621 31.0851C70.5576 31.2527 70.396 31.3626 70.2172 31.3626H67.4711C67.2922 31.3626 67.1307 31.2527 67.0672 31.0851L59.6077 11.6308C58.7308 9.20266 57.4328 4.5082 57.4328 4.5082H57.352C57.352 4.5082 57.6001 9.7461 57.6001 12.5096V30.9232C57.6001 31.166 57.4039 31.3568 57.1674 31.3568H54.1905C53.9482 31.3568 53.7578 31.1602 53.7578 30.9232V0.628914C53.7578 0.386097 53.954 0.195312 54.1905 0.195312" fill="#1B6673"/>
<path d="M104.25 23.0706V20.1163C104.25 19.7983 103.921 19.5844 103.632 19.7232C102.484 20.2724 100.852 20.7002 99.317 20.9777C95.6363 21.6079 93.2133 22.2785 93.2133 25.3773C93.2133 28.268 95.4286 28.9791 97.6844 28.9791C102.155 28.9791 104.25 25.6722 104.25 23.0706ZM89.1172 25.4178C89.1172 20.1799 92.9652 19.0525 98.7747 18.3414C102.075 17.9656 104.209 17.4222 104.209 15.1154C104.209 12.6873 102.496 11.1783 99.4036 11.1783C96.0286 11.1783 94.3152 12.693 94.044 15.1386C94.021 15.3582 93.8421 15.5317 93.6171 15.5317H90.7153C90.4614 15.5317 90.2537 15.3178 90.2826 15.0634C90.6576 11.4443 93.5479 8.32812 99.3632 8.32812C101.498 8.32812 103.379 8.70392 104.798 9.54221C106.678 10.6754 107.809 12.641 107.809 15.6589V26.1752C107.809 27.9789 108.225 28.9387 110.192 28.5224H110.359V30.9159C110.359 31.1124 110.232 31.2859 110.042 31.3379C109.569 31.4709 109.015 31.5807 108.271 31.5807C105.888 31.5807 104.717 30.4476 104.302 28.0599H104.261C102.842 30.0313 100.54 31.8293 96.7382 31.8293C92.4748 31.8293 89.1287 29.7365 89.1287 25.4178" fill="#1B6673"/>
<path d="M117.376 12.9393H117.502C118.881 10.3435 121.183 8.58594 124.149 8.58594C124.622 8.58594 124.956 8.63219 125.268 8.73047C125.447 8.78828 125.573 8.95594 125.573 9.14673V12.523H125.447C124.904 12.3554 124.529 12.3149 123.86 12.3149C120.393 12.3149 117.422 14.9107 117.422 19.1427V30.9366C117.422 31.1795 117.226 31.3703 116.989 31.3703H113.972C113.729 31.3703 113.539 31.1737 113.539 30.9366V9.31439C113.539 9.07158 113.735 8.88079 113.972 8.88079H116.949C117.191 8.88079 117.381 9.07736 117.381 9.31439V12.9393H117.376Z" fill="#1B6673"/>
<path d="M131.876 18.2547H143.905C144.158 18.2547 144.36 18.0408 144.337 17.7864C143.997 13.751 141.805 11.3402 138.055 11.3402C134.305 11.3402 132.061 14.0228 131.443 17.7402C131.397 18.0061 131.599 18.2547 131.87 18.2547M127.318 20.1394C127.318 13.6065 131.622 8.32812 138.06 8.32812C141.407 8.32812 143.997 9.62894 145.751 11.8027C147.516 13.936 148.433 17.0002 148.503 20.6193C148.503 20.8621 148.306 21.0644 148.064 21.0644H131.755C131.501 21.0644 131.293 21.2841 131.322 21.5385C131.749 25.7011 134.114 28.8172 138.303 28.8172C141.262 28.8172 143.345 27.4702 144.141 25.2617C144.205 25.0883 144.366 24.9611 144.551 24.9611H147.47C147.764 24.9611 147.972 25.2502 147.885 25.5334C146.703 29.4069 143.201 31.997 138.262 31.997C131.362 31.997 127.312 26.7186 127.312 20.1394" fill="#1B6673"/>
<path d="M153.222 0.203125H156.239C156.481 0.203125 156.672 0.399691 156.672 0.636726V30.931C156.672 31.1738 156.476 31.3646 156.239 31.3646H153.222C152.979 31.3646 152.789 31.168 152.789 30.931V0.636726C152.789 0.39391 152.985 0.203125 153.222 0.203125Z" fill="#1B6673"/>
<path d="M162.582 8.87515H165.599C165.841 8.87515 166.032 9.07172 166.032 9.30875V30.931C166.032 31.1738 165.836 31.3646 165.599 31.3646H162.582C162.339 31.3646 162.149 31.168 162.149 30.931V9.30875C162.149 9.06594 162.345 8.87515 162.582 8.87515ZM162.495 0.203125H165.68C165.922 0.203125 166.112 0.399691 166.112 0.636726V4.29055C166.112 4.53336 165.916 4.72415 165.68 4.72415H162.495C162.253 4.72415 162.062 4.52758 162.062 4.29055V0.636726C162.062 0.39391 162.259 0.203125 162.495 0.203125Z" fill="#1B6673"/>
<path d="M188.102 20.1394C188.102 15.2831 185.72 11.4269 181.122 11.4269C176.524 11.4269 174.141 15.2831 174.141 20.1394C174.141 24.9958 176.524 28.8115 181.122 28.8115C185.72 28.8115 188.102 25.0016 188.102 20.1394ZM170.172 20.1394C170.172 13.6065 174.395 8.32812 181.168 8.32812C187.941 8.32812 192.077 13.6065 192.077 20.1394C192.077 26.6724 187.941 31.997 181.168 31.997C174.395 31.997 170.172 26.7186 170.172 20.1394Z" fill="#1B6673"/>
<path d="M200.063 12.0553H200.19C201.332 10.4712 202.757 9.28025 204.632 8.7079C209.738 7.14115 214.861 11.1881 214.861 16.5416V30.9314C214.861 31.1742 214.665 31.365 214.428 31.365H211.451C211.209 31.365 211.019 31.1685 211.019 30.9314V16.1196C211.019 13.2289 209.138 11.5928 206.086 11.5928C202.619 11.5928 200.109 14.0614 200.109 17.669V30.9314C200.109 31.1742 199.913 31.365 199.676 31.365H196.659C196.417 31.365 196.227 31.1685 196.227 30.9314V9.30916C196.227 9.06635 196.423 8.87556 196.659 8.87556H199.636C199.878 8.87556 200.069 9.07213 200.069 9.30916V12.0553H200.063Z" fill="#1B6673"/>
</svg>
