<svg width="1440" height="964" viewBox="0 0 1440 964" fill="none" xmlns="http://www.w3.org/2000/svg">
<g clip-path="url(#clip0_264_120)">
<rect width="1440" height="964" fill="#1B6673"/>
<rect x="-708" width="2148" height="1028" fill="url(#paint0_linear_264_120)"/>
<g opacity="0.18">
<path d="M0 1028H244.423L0 835.636V1028Z" fill="#1B6673"/>
<path d="M829.35 806.283V804.018H826.54V801.843H823.731V799.578H820.921V797.313H818.112V795.138H815.19V792.873H812.381V790.608H809.571V788.433H806.762V786.168H803.952V783.903H801.143V781.728H798.333V779.463H795.524V777.288H792.714V775.023H789.905V772.758H787.095V770.583H784.286V768.318H781.477V766.053H778.667V763.879H775.858V761.613H773.048V759.348H770.239V757.173H767.429V754.908H764.62V752.643H761.81V750.469H759.001V748.203H756.192V745.938H753.382V743.764H750.573V741.498H747.763V739.233H744.954V737.059H742.144V734.793H739.335V732.619H736.525V730.354H733.716V728.088H730.906V725.914H728.097V723.649H725.288V721.384H722.478V719.209H719.669V716.944H716.859V714.678H714.05V712.504H711.24V710.239H708.431V707.974H705.621V705.799H702.812V703.534H700.003V701.269H697.193V699.094H694.384V696.829H691.574V694.654H688.765V692.389H685.955V690.124H683.146V687.949H680.336V685.684H677.527V683.419H674.717V681.244H671.908V678.979H669.099V676.714H666.289V674.539H663.48V672.274H660.67V670.009H657.861V667.834H655.051V665.569H652.242V663.304H649.432V661.129H646.623V658.864H643.814V656.69H641.004V654.424H638.195V652.159H635.385V649.985H632.576V647.719H629.766V645.454H626.957V643.28H624.147V641.015H621.338V638.749H618.528V636.575H615.719V634.309H612.91V632.044H610.1V629.87H607.291V627.605H604.481V625.339H601.672V623.165H598.862V620.9H596.053V618.634H593.243V616.46H590.434V614.194H587.625V612.02H584.815V609.755H582.006V607.49H579.196V605.315H576.387V603.05H573.465V600.785H570.656V598.61H567.846V596.345H565.037V594.08H562.227V591.905H559.418V589.64H556.608V587.375H553.799V585.2H550.99V582.935H548.18V580.67H545.371V578.495H542.561V576.23H539.752V574.055H536.942V571.79H534.133V569.525H531.323V567.35H528.514V565.085H525.704V562.82H522.895V560.645H520.086V558.38H517.276V556.115H514.467V553.94H511.657V551.675H508.848V549.41H506.038V547.236H503.229V544.97H500.419V542.705H497.61V540.53H494.801V538.265H491.991V536H381.299V752.643H380.512V750.469H377.702V748.203H374.893V745.938H372.084V743.764H369.274V741.498H366.465V739.233H363.655V737.059H360.846V734.793H358.036V732.619H355.227V730.354H352.417V728.088H349.608V725.914H346.799V723.649H343.989V721.384H341.18V719.209H338.37V716.944H335.561V714.678H332.751V712.504H329.942V710.239H327.132V707.974H324.323V705.799H321.513V703.534H318.704V701.269H315.895V699.094H313.085V696.829H310.276V694.654H307.466V692.389H304.657V690.124H301.847V687.949H299.038V685.684H296.228V683.419H293.419V681.244H290.61V678.979H287.8V676.714H284.991V674.539H282.181V672.274H279.372V670.009H276.562V667.834H273.753V665.569H270.943V663.304H268.134V661.129H265.324V658.864H262.515V656.69H259.706V654.424H256.896V652.159H254.087V649.985H251.277V647.719H248.468V645.454H245.658V643.28H242.849V641.015H240.039V638.749H237.23V636.575H234.421V634.309H231.611V632.044H228.802V629.87H225.992V627.605H223.183V625.339H220.373V623.165H217.564V620.9H214.754V618.634H211.945V616.46H209.135V614.194H206.326V612.02H203.517V609.755H200.707V607.49H197.898V605.315H195.088V603.05H192.166V600.785H189.357V598.61H186.548V596.345H183.738V594.08H180.929V591.905H178.119V589.64H175.31V587.375H172.5V585.2H169.691V582.935H166.881V580.67H164.072V578.495H161.263V576.23H158.453V574.055H155.644V571.79H152.834V569.525H150.025V567.35H147.215V565.085H144.406V562.82H141.596V560.645H138.787V558.38H135.977V556.115H133.168V553.94H130.359V551.675H127.549V549.41H124.74V547.236H121.93V544.97H119.121V542.705H116.311V540.53H113.502V538.265H110.692V536H0V757.808H2.80945V759.982H5.6189V762.247H8.54084V764.513H11.3503V766.687H14.1597V768.953H16.9692V771.218H19.891V773.392H22.7004V775.657H25.5099V777.832H28.3193V780.097H31.2412V782.362H34.0507V784.537H36.8601V786.802H39.6696V789.068H42.5914V791.242H45.4008V793.507H48.2103V795.772H51.0197V797.947H53.9415V800.212H56.7509V802.477H59.5604V804.652H62.3698V806.917H65.2918V809.182H68.1012V811.357H70.9107V813.622H73.7201V815.797H76.6419V818.062H79.4513V820.327H82.2608V822.502H85.0702V824.767H87.992V827.032H90.8014V829.207H93.6109V831.472H96.4204V833.737H99.3423V835.912H102.152V838.177H104.961V840.442H107.771V842.617H110.692V844.882H113.502V847.147H116.311V849.322H119.121V851.587H122.043V853.852H124.852V856.026H127.661V858.292H130.471V860.466H133.393V862.731H136.202V864.997H139.012V867.171H141.821V869.437H144.743V871.702H147.552V873.876H150.362V876.141H153.171V878.407H156.093V880.581H158.902V882.846H161.712V885.111H164.521V887.286H167.443V889.551H170.253V891.817H173.062V893.991H175.872V896.256H178.681V898.431H181.603V900.696H184.412V902.961H187.222V905.136H190.031V907.401H192.953V909.666H195.763V911.841H198.572V914.106H201.382V916.371H204.303V918.546H207.113V920.811H209.922V923.076H212.732V925.251H215.653V927.516H218.463V929.781H221.272V931.956H224.082V934.221H227.004V936.395H229.813V938.661H232.623V940.926H235.432V943.101H238.354V945.366H241.163V947.631H243.973V949.806H246.782V952.071H249.704V954.336H252.514V956.51H255.323V958.776H258.132V961.041H261.054V963.216H263.864V965.481H266.673V967.746H269.482V969.92H272.404V972.186H275.214V974.451H278.023V976.625H280.833V978.89H283.755V981.065H286.564V983.33H289.374V985.596H292.183V987.77H295.105V990.035H297.914V992.301H300.723V994.475H303.533V996.74H306.455V999.005H309.264V1001.18H312.074V1003.45H314.883V1005.71H317.805V1007.89H320.615V1010.15H323.424V1012.42H326.234V1014.59H329.155V1016.86H331.965V1019.12H334.774V1021.29H337.583V1023.56H340.505V1025.73H343.315V1028H450.861V811.357H452.209V813.622H455.019V815.797H457.941V818.062H460.75V820.327H463.559V822.502H466.369V824.767H469.291V827.032H472.1V829.207H474.909V831.472H477.719V833.737H480.641V835.912H483.45V838.177H486.26V840.442H489.069V842.617H491.991V844.882H494.801V847.147H497.61V849.322H500.419V851.587H503.341V853.852H506.15V856.026H508.96V858.292H511.769V860.466H514.691V862.731H517.501V864.997H520.31V867.171H523.12V869.437H526.042V871.702H528.851V873.876H531.66V876.141H534.47V878.407H537.392V880.581H540.201V882.846H543.01V885.111H545.82V887.286H548.629V889.551H551.551V891.817H554.361V893.991H557.17V896.256H559.98V898.431H562.902V900.696H565.711V902.961H568.52V905.136H571.33V907.401H574.252V909.666H577.061V911.841H579.871V914.106H582.68V916.371H585.602V918.546H588.411V920.811H591.221V923.076H594.03V925.251H596.952V927.516H599.762V929.781H602.571V931.956H605.38V934.221H608.302V936.395H611.112V938.661H613.921V940.926H616.731V943.101H619.652V945.366H622.462V947.631H625.271V949.806H628.081V952.071H631.003V954.336H633.812V956.51H636.622V958.776H639.431V961.041H642.353V963.216H645.162V965.481H647.972V967.746H650.781V969.92H653.703V972.186H656.512V974.451H659.322V976.625H662.131V978.89H665.053V981.065H667.863V983.33H670.672V985.596H673.481V987.77H676.403V990.035H679.213V992.301H682.022V994.475H684.832V996.74H687.753V999.005H690.563V1001.18H693.372V1003.45H696.182V1005.71H699.104V1007.89H701.913V1010.15H704.723V1012.42H707.532V1014.59H710.454V1016.86H713.263V1019.12H716.073V1021.29H718.882V1023.56H721.804V1025.73H724.613V1028H832.159V806.283H829.35Z" fill="#1B6673"/>
</g>
</g>
<defs>
<linearGradient id="paint0_linear_264_120" x1="1593.64" y1="591.997" x2="-747.529" y2="591.997" gradientUnits="userSpaceOnUse">
<stop stop-color="#067480"/>
<stop offset="1" stop-color="#00232A"/>
</linearGradient>
<clipPath id="clip0_264_120">
<rect width="1440" height="964" fill="white"/>
</clipPath>
</defs>
</svg>
